# File created by Blade
# Date/Time:  Tue Jan 27 18:50:13 2015
#---------------------------------------------------------
:version 1.10
:name HOM
:units
  mass 1.0
  length 1.000000
  angle deg
:documentation
     Acclaim Skeleton File
:root
   axis xyz
   order TX TY TZ RX RY RZ
   position 0.000000 0.000000 0.000000
   orientation 0 0 0
:bonedata
   begin
      id 1
      name Spine_dum
      direction 0.000000 1.000000 0.000000
      length 5.195262
      axis 0.0 0.0 0.0 xyz
   end
   begin
      id 2
      name LeftUpLeg_dum
      direction 1.000000 0.000000 0.000000
      length 3.351363
      axis 0.0 0.0 0.0 xyz
   end
   begin
      id 3
      name RightUpLeg_dum
      direction -1.000000 0.000000 0.000000
      length 3.351363
      axis 0.0 0.0 0.0 xyz
   end
   begin
      id 4
      name Spine
      direction 0.000000 1.000000 0.000000
      length 0.000000
      axis 0.0 0.0 0.0 xyz
      dof rx ry rz
   end
   begin
      id 5
      name Spine_dum1
      direction 0.000000 1.000000 0.000000
      length 15.653875
      axis 0.0 0.0 0.0 xyz
   end
   begin
      id 6
      name Spine_dum2
      direction 0.000000 1.000000 0.000000
      length 10.329768
      axis 0.0 0.0 0.0 xyz
   end
   begin
      id 7
      name Spine_dum3
      direction 0.000000 1.000000 0.000000
      length 10.329768
      axis 0.0 0.0 0.0 xyz
   end
   begin
      id 8
      name Head
      direction 0.000000 1.000000 0.000000
      length 4.527550
      axis 0.0 0.0 0.0 xyz
      dof rx ry rz
   end
   begin
      id 9
      name LeftShoulder
      direction 1.000000 0.000000 0.000000
      length 6.996006
      axis 0.0 0.0 -90.0 xyz
      dof rx ry rz
   end
   begin
      id 10
      name LeftArm
      direction 1.000000 0.000000 0.000000
      length 10.209302
      axis 0.0 0.0 -90.0 xyz
      dof rx ry rz
   end
   begin
      id 11
      name LeftForeArm
      direction 1.000000 0.000000 0.000000
      length 8.563163
      axis 0.0 0.0 -90.0 xyz
      dof ry rz rx
   end
   begin
      id 12
      name LeftHand
      direction 0.000000 0.000000 0.000000
      length 0.000000
      axis 0.0 0.0 -90.0 xyz
      dof rx ry rz
   end
   begin
      id 13
      name LeftHand_dum1
      direction 0.000000 0.000000 0.000000
      length 0.000000
      axis 0.0 0.0 -90.0 xyz
   end
   begin
      id 14
      name LeftHand_dum2
      direction 1.000000 0.000000 0.000000
      length 3.937000
      axis 0.0 0.0 -90.0 xyz
   end
   begin
      id 15
      name LeftHandThumb1
      direction 0.000000 0.000000 1.000000
      length 3.937000
      axis 0.0 0.0 -90.0 xyz
      dof rx rz ry
   end
   begin
      id 16
      name RightShoulder
      direction -1.000000 0.000000 0.000000
      length 6.996006
      axis 0.0 0.0 90.0 xyz
      dof rx ry rz
   end
   begin
      id 17
      name RightArm
      direction -1.000000 0.000000 0.000000
      length 10.209302
      axis 0.0 0.0 90.0 xyz
      dof rx ry rz
   end
   begin
      id 18
      name RightForeArm
      direction -1.000000 0.000000 0.000000
      length 8.563163
      axis 0.0 0.0 90.0 xyz
      dof ry rz rx
   end
   begin
      id 19
      name RightHand
      direction 0.000000 0.000000 0.000000
      length 0.000000
      axis 0.0 0.0 90.0 xyz
      dof rx ry rz
   end
   begin
      id 20
      name RightHand_dum1
      direction 0.000000 0.000000 0.000000
      length 0.000000
      axis 0.0 0.0 90.0 xyz
   end
   begin
      id 21
      name RightHand_dum2
      direction -1.000000 0.000000 0.000000
      length 3.937000
      axis 0.0 0.0 90.0 xyz
   end
   begin
      id 22
      name RightHandThumb1
      direction 0.000000 0.000000 1.000000
      length 3.937000
      axis 0.0 0.0 90.0 xyz
      dof rx rz ry
   end
   begin
      id 23
      name LeftUpLeg
      direction 0.000000 -1.000000 0.000000
      length 16.346831
      axis 0.0 0.0 0.0 xyz
      dof rx ry rz
   end
   begin
      id 24
      name LeftLeg
      direction 0.000000 -1.000000 0.000000
      length 13.959795
      axis 0.0 0.0 0.0 xyz
      dof rx ry rz
   end
   begin
      id 25
      name LeftFoot
      direction 0.000000 -0.258819 0.965926
      length 5.165550
      axis 15.0 0.0 0.0 xyz
      dof rx ry rz
   end
   begin
      id 26
      name LeftToeBase
      direction 0.000000 0.000000 1.000000
      length 2.952750
      axis 0.0 0.0 0.0 xyz
      dof rx ry rz
   end
   begin
      id 27
      name RightUpLeg
      direction 0.000000 -1.000000 0.000000
      length 16.346831
      axis 0.0 0.0 0.0 xyz
      dof rx ry rz
   end
   begin
      id 28
      name RightLeg
      direction 0.000000 -1.000000 0.000000
      length 13.959795
      axis 0.0 0.0 0.0 xyz
      dof rx ry rz
   end
   begin
      id 29
      name RightFoot
      direction 0.000000 -0.258819 0.965926
      length 5.165550
      axis 15.0 0.0 0.0 xyz
      dof rx ry rz
   end
   begin
      id 30
      name RightToeBase
      direction 0.000000 0.000000 1.000000
      length 2.952750
      axis 0.0 0.0 0.0 xyz
      dof rx ry rz
   end
:hierarchy
   begin
      root Spine_dum LeftUpLeg_dum RightUpLeg_dum
      Spine_dum Spine
      LeftUpLeg_dum LeftUpLeg
      RightUpLeg_dum RightUpLeg
      Spine Spine_dum1 Spine_dum2 Spine_dum3
      Spine_dum1 Head
      Spine_dum2 LeftShoulder
      Spine_dum3 RightShoulder
      LeftShoulder LeftArm
      LeftArm LeftForeArm
      LeftForeArm LeftHand
      LeftHand LeftHand_dum1 LeftHand_dum2
      LeftHand_dum1 LeftHandThumb1
      RightShoulder RightArm
      RightArm RightForeArm
      RightForeArm RightHand
      RightHand RightHand_dum1 RightHand_dum2
      RightHand_dum1 RightHandThumb1
      LeftUpLeg LeftLeg
      LeftLeg LeftFoot
      LeftFoot LeftToeBase
      RightUpLeg RightLeg
      RightLeg RightFoot
      RightFoot RightToeBase
   end

# File created by Blade
# Date/Time:  Tue Jan 27 18:50:05 2015
# Frame Rate: 120.000 fps
#------------------------------------------------------
:FULLY-SPECIFIED
:DEGREES
334
root -2.401714 31.922711 -6.989822 -2.922690 21.134542 -8.328023
Spine 5.868105 -4.576033 1.520993
Head 14.956918 5.905256 6.630751
LeftShoulder -17.020710 15.224634 15.451213
LeftArm 21.908737 -25.859661 -65.531052
LeftForeArm -18.332478 -0.000000 103.275064
LeftHand -13.426625 -0.000000 10.380329
LeftHandThumb1 -26.253704 0.000000 33.147579
RightShoulder -12.319129 -0.767618 -10.248353
RightArm 15.431691 -24.026926 73.783845
RightForeArm -27.974085 -0.000000 28.524313
RightHand -15.684435 0.000000 9.506169
RightHandThumb1 -24.326973 -0.000000 -32.862282
LeftUpLeg -6.953984 -4.748475 -1.011508
LeftLeg 20.975518 -0.000000 -0.000000
LeftFoot -26.313868 24.145305 -17.813179
LeftToeBase 4.119708 -0.000000 -0.000000
RightUpLeg -75.841959 -2.652239 11.272484
RightLeg 83.718328 -0.000000 -0.000000
RightFoot -0.838400 -15.840329 15.042055
RightToeBase 3.305956 -0.000000 -0.000000
335
root -2.411574 31.922159 -6.989090 -2.902007 21.272312 -8.365977
Spine 5.975116 -4.730529 1.616158
Head 14.955298 6.110486 6.604273
LeftShoulder -16.973178 15.182269 15.505861
LeftArm 22.009451 -25.722612 -65.412654
LeftForeArm -18.462635 -0.000000 103.092581
LeftHand -13.426461 -0.000000 10.599454
LeftHandThumb1 -26.253704 0.000000 33.147579
RightShoulder -12.380299 -0.877274 -10.227702
RightArm 15.236964 -24.123195 73.862661
RightForeArm -27.962349 -0.000000 28.925119
RightHand -15.297959 -0.000000 9.838710
RightHandThumb1 -24.326973 -0.000000 -32.862282
LeftUpLeg -7.047532 -4.897349 -0.965590
LeftLeg 21.055876 -0.000000 -0.000000
LeftFoot -26.301998 24.165357 -17.763171
LeftToeBase 4.125750 -0.000000 -0.000000
RightUpLeg -75.830102 -2.017279 11.382727
RightLeg 84.231433 -0.000000 -0.000000
RightFoot -0.641313 -15.628990 14.922798
RightToeBase 3.390248 -0.000000 -0.000000
336
root -2.421157 31.923832 -6.985834 -2.915551 21.444965 -8.415427
Spine 6.100208 -4.884677 1.709216
Head 14.973156 6.293755 6.633728
LeftShoulder -16.886652 15.112654 15.584332
LeftArm 22.123790 -25.574460 -65.331109
LeftForeArm -18.658161 -0.000000 102.881069
LeftHand -13.497553 0.000000 11.347618
LeftHandThumb1 -26.253704 0.000000 33.147579
RightShoulder -12.418855 -1.087043 -10.137724
RightArm 15.059002 -23.890178 74.003120
RightForeArm -28.145297 0.000000 29.276489
RightHand -15.594828 -0.000000 9.372540
RightHandThumb1 -24.326973 -0.000000 -32.862282
LeftUpLeg -7.096621 -5.027209 -0.907994
LeftLeg 21.106274 -0.000000 -0.000000
LeftFoot -26.265031 24.139799 -17.716323
LeftToeBase 4.076728 -0.000000 -0.000000
RightUpLeg -75.802236 -1.401129 11.522039
RightLeg 84.734908 -0.000000 -0.000000
RightFoot -0.431867 -15.525210 14.949992
RightToeBase 3.399510 -0.000000 -0.000000
337
root -2.432701 31.925715 -6.986077 -2.888150 21.655911 -8.443866
Spine 6.193994 -5.049452 1.764977
Head 14.975688 6.402188 6.696317
LeftShoulder -16.730297 15.026587 15.731928
LeftArm 22.157979 -25.433426 -65.289855
LeftForeArm -18.642371 -0.000000 102.706708
LeftHand -13.481988 -0.000000 11.588455
LeftHandThumb1 -26.253704 0.000000 33.147579
RightShoulder -12.495284 -1.258206 -10.055076
RightArm 14.884717 -23.951253 74.037708
RightForeArm -28.139586 -0.000000 29.571465
RightHand -15.464865 -0.000000 9.571371
RightHandThumb1 -24.326973 -0.000000 -32.862282
LeftUpLeg -7.176665 -5.098672 -0.861228
LeftLeg 21.122857 -0.000000 -0.000000
LeftFoot -26.197090 24.047698 -17.635489
LeftToeBase 4.066151 -0.000000 -0.000000
RightUpLeg -75.807042 -0.842410 11.689527
RightLeg 85.204078 -0.000000 -0.000000
RightFoot -0.282398 -15.454755 15.064251
RightToeBase 3.380612 -0.000000 -0.000000
338
root -2.444432 31.928599 -6.984619 -2.864680 21.921788 -8.455706
Spine 6.280194 -5.262572 1.779752
Head 15.014509 6.511976 6.796853
LeftShoulder -16.571249 14.924537 15.887591
LeftArm 22.207325 -25.274903 -65.299038
LeftForeArm -18.534894 -0.000000 102.509111
LeftHand -13.400164 -0.000000 11.839196
LeftHandThumb1 -26.253704 0.000000 33.147579
RightShoulder -12.535051 -1.451719 -9.934296
RightArm 14.687018 -23.986335 74.051396
RightForeArm -28.046976 0.000000 29.928576
RightHand -15.434890 -0.000000 9.907053
RightHandThumb1 -24.326973 -0.000000 -32.862282
LeftUpLeg -7.239361 -5.167309 -0.824683
LeftLeg 21.114295 -0.000000 -0.000000
LeftFoot -26.110878 23.884824 -17.602037
LeftToeBase 4.042254 -0.000000 -0.000000
RightUpLeg -75.809915 -0.338743 11.865554
RightLeg 85.657843 -0.000000 -0.000000
RightFoot -0.148682 -15.435514 15.008969
RightToeBase 3.351552 -0.000000 -0.000000
339
root -2.454088 31.928961 -6.986781 -2.787858 22.215343 -8.400143
Spine 6.313045 -5.492536 1.706017
Head 15.115283 6.628573 6.987020
LeftShoulder -16.399548 14.872467 16.072998
LeftArm 22.308546 -25.093009 -65.425855
LeftForeArm -17.933165 -0.000000 102.323901
LeftHand -13.224423 -0.000000 11.046286
LeftHandThumb1 -26.253704 0.000000 33.147579
RightShoulder -12.562183 -1.694110 -9.830370
RightArm 14.567617 -23.903822 74.159316
RightForeArm -27.945232 -0.000000 29.982608
RightHand -15.537892 -0.000000 9.216256
RightHandThumb1 -24.326973 -0.000000 -32.862282
LeftUpLeg -7.322365 -5.183630 -0.854049
LeftLeg 21.069510 -0.000000 -0.000000
LeftFoot -26.014629 23.674093 -17.584410
LeftToeBase 4.042254 -0.000000 -0.000000
RightUpLeg -75.866022 0.157709 11.962145
RightLeg 86.100952 -0.000000 -0.000000
RightFoot -0.076581 -15.375346 15.297083
RightToeBase 3.672460 -0.000000 -0.000000
340
root -2.463800 31.931243 -6.985055 -2.713440 22.549506 -8.344300
Spine 6.354421 -5.716617 1.628361
Head 15.158769 6.621527 7.167557
LeftShoulder -16.200039 14.744826 16.266613
LeftArm 22.366026 -24.849372 -65.512401
LeftForeArm -17.293595 -0.000000 102.132345
LeftHand -13.263389 0.000000 12.052084
LeftHandThumb1 -26.253704 0.000000 33.147579
RightShoulder -12.687671 -1.891947 -9.699180
RightArm 14.376639 -23.964236 74.221399
RightForeArm -27.863324 -0.000000 30.145121
RightHand -15.488300 -0.000000 9.074357
RightHandThumb1 -24.326973 -0.000000 -32.862282
LeftUpLeg -7.372400 -5.157969 -0.871453
LeftLeg 20.970814 -0.000000 -0.000000
LeftFoot -25.878277 23.372888 -17.561432
LeftToeBase 4.001408 -0.000000 -0.000000
RightUpLeg -75.930164 0.617705 12.058506
RightLeg 86.536679 -0.000000 -0.000000
RightFoot 0.099717 -15.230112 15.324137
RightToeBase 3.067748 -0.000000 -0.000000
341
root -2.476113 31.933200 -6.986366 -2.578365 22.938347 -8.257006
Spine 6.330864 -5.996543 1.484773
Head 15.204739 6.587662 7.426218
LeftShoulder -16.050191 14.568177 16.494601
LeftArm 22.441194 -24.526444 -65.627719
LeftForeArm -16.432043 -0.000000 101.878639
LeftHand -13.283918 -0.000000 13.369280
LeftHandThumb1 -26.253704 0.000000 33.147579
RightShoulder -12.793954 -2.065836 -9.541268
RightArm 14.235877 -24.135610 74.225917
RightForeArm -27.631428 0.000000 30.147651
RightHand -15.548677 0.000000 8.921744
RightHandThumb1 -24.326973 -0.000000 -32.862282
LeftUpLeg -7.473168 -5.136728 -0.915403
LeftLeg 20.873615 -0.000000 -0.000000
LeftFoot -25.701252 23.018746 -17.501281
LeftToeBase 3.976583 -0.000000 -0.000000
RightUpLeg -76.048491 1.037580 12.178730
RightLeg 86.918912 -0.000000 -0.000000
RightFoot 0.038872 -15.286901 15.547240
RightToeBase 3.597943 -0.000000 -0.000000
342
root -2.488997 31.936615 -6.988606 -2.424865 23.389853 -8.131815
Spine 6.280334 -6.332891 1.282252
Head 15.342578 6.595388 7.731744
LeftShoulder -15.876917 14.382010 16.714531
LeftArm 22.516825 -24.224080 -65.737558
LeftForeArm -15.552516 -0.000000 101.647720
LeftHand -13.417654 -0.000000 14.805453
LeftHandThumb1 -26.253704 0.000000 33.147579
RightShoulder -12.876545 -2.319360 -9.367796
RightArm 14.145166 -24.291258 74.239595
RightForeArm -27.406123 -0.000000 30.096529
RightHand -15.488281 0.000000 8.968300
RightHandThumb1 -24.326973 -0.000000 -32.862282
LeftUpLeg -7.574662 -5.001666 -0.976651
LeftLeg 20.723448 -0.000000 -0.000000
LeftFoot -25.558069 22.454980 -17.619470
LeftToeBase 4.222716 -0.000000 -0.000000
RightUpLeg -76.180609 1.397328 12.269311
RightLeg 87.327306 -0.000000 -0.000000
RightFoot 0.009188 -15.237426 15.245888
RightToeBase 3.596720 -0.000000 -0.000000
343
root -2.500089 31.938945 -6.990003 -2.256932 23.822842 -7.997534
Spine 6.209887 -6.643536 1.081722
Head 15.462301 6.546067 7.983783
LeftShoulder -15.709887 14.211429 16.890162
LeftArm 22.692008 -24.014079 -65.949803
LeftForeArm -14.420832 -0.000000 101.427310
LeftHand -13.767023 -0.000000 16.277279
LeftHandThumb1 -26.253704 0.000000 33.147579
RightShoulder -12.962149 -2.489535 -9.236912
RightArm 13.910130 -24.199655 74.435167
RightForeArm -27.428183 -0.000000 29.975570
RightHand -15.534621 -0.000000 9.026993
RightHandThumb1 -24.326973 -0.000000 -32.862282
LeftUpLeg -7.672808 -4.783399 -1.038634
LeftLeg 20.582879 -0.000000 -0.000000
LeftFoot -25.408394 21.755968 -17.770369
LeftToeBase 4.382871 -0.000000 -0.000000
RightUpLeg -76.316364 1.747818 12.380986
RightLeg 87.683678 -0.000000 -0.000000
RightFoot -0.076859 -15.143574 15.239494
RightToeBase 3.331136 -0.000000 -0.000000
344
root -2.514938 31.941417 -6.992812 -2.066181 24.317642 -7.885439
Spine 6.116774 -6.994149 0.905681
Head 15.520651 6.447428 8.234062
LeftShoulder -15.526023 14.020970 17.029760
LeftArm 22.897909 -23.968193 -66.179910
LeftForeArm -13.855898 -0.000000 101.188733
LeftHand -13.907579 0.000000 17.225649
LeftHandThumb1 -26.253704 0.000000 33.147579
RightShoulder -13.078940 -2.639363 -9.161968
RightArm 13.674338 -24.233789 74.681679
RightForeArm -27.681807 -0.000000 29.782039
RightHand -15.559937 -0.000000 9.154968
RightHandThumb1 -24.326973 -0.000000 -32.862282
LeftUpLeg -7.828988 -4.594258 -1.073481
LeftLeg 20.481839 -0.000000 -0.000000
LeftFoot -25.267371 21.026785 -17.954860
LeftToeBase 4.621111 -0.000000 -0.000000
RightUpLeg -76.503838 2.072807 12.477078
RightLeg 88.053021 -0.000000 -0.000000
RightFoot -0.210445 -14.948050 15.280551
RightToeBase 3.156578 -0.000000 -0.000000
345
root -2.532753 31.943610 -6.996379 -1.874560 24.811203 -7.765366
Spine 6.035859 -7.322839 0.698806
Head 15.556032 6.358133 8.509713
LeftShoulder -15.340595 13.826135 17.196159
LeftArm 23.189840 -24.051326 -66.570948
LeftForeArm -13.396409 -0.000000 100.872524
LeftHand -13.955522 -0.000000 17.542393
LeftHandThumb1 -26.253704 0.000000 33.147579
RightShoulder -13.209541 -2.779876 -9.032023
RightArm 13.418322 -24.735124 74.670791
RightForeArm -27.145105 -0.000000 29.760307
RightHand -15.617689 -0.000000 8.914296
RightHandThumb1 -24.326973 -0.000000 -32.862282
LeftUpLeg -7.993790 -4.358971 -1.106524
LeftLeg 20.392363 -0.000000 -0.000000
LeftFoot -25.135827 20.234700 -18.172580
LeftToeBase 5.079421 -0.000000 -0.000000
RightUpLeg -76.689132 2.379508 12.601732
RightLeg 88.391036 -0.000000 -0.000000
RightFoot -0.266772 -14.718008 14.954198
RightToeBase 2.872044 -0.000000 -0.000000
